<svg height="477.60001pt" viewBox="0 0 477.60001 477.60001" width="477.60001pt" xmlns="http://www.w3.org/2000/svg"><path d="m477.601562 238.800781c0 131.886719-106.914062 238.800781-238.800781 238.800781s-238.800781-106.914062-238.800781-238.800781 106.914062-238.800781 238.800781-238.800781 238.800781 106.914062 238.800781 238.800781zm0 0" fill="#382b73"/><path d="m445.398438 238.800781c0 114.101563-92.496094 206.597657-206.597657 206.597657-114.101562 0-206.597656-92.496094-206.597656-206.597657 0-114.101562 92.496094-206.597656 206.597656-206.597656 114.101563 0 206.597657 92.496094 206.597657 206.597656zm0 0" fill="#473080"/><path d="m363.148438 357.828125c.042968-.042969.082031-.089844.121093-.132813.015625-.015624.03125-.035156.046875-.050781.050782-.058593.097656-.113281.144532-.175781l.007812-.003906c.050781-.0625.097656-.121094.144531-.183594.015625-.019531.027344-.035156.039063-.054688.039062-.046874.074218-.09375.109375-.144531.011719-.015625.023437-.035156.035156-.050781.042969-.058594.082031-.117188.121094-.175781.003906-.003907.007812-.011719.011719-.015625.042968-.066406.085937-.132813.125-.199219.011718-.015625.019531-.03125.03125-.042969.03125-.054687.058593-.105468.09375-.15625.007812-.019531.019531-.039062.027343-.054687.035157-.0625.066407-.121094.097657-.179688.003906-.007812.007812-.015625.011718-.023437.039063-.070313.074219-.140625.109375-.210938.003907-.007812.007813-.019531.011719-.027344.03125-.0625.058594-.125.089844-.183593.003906-.015625.011718-.03125.019531-.046875.027344-.0625.054687-.128906.082031-.195313.003906-.003906.003906-.011719.007813-.015625.0625-.144531.117187-.292968.167969-.445312l.011718-.039063c.023438-.066406.046875-.132812.066406-.203125 0-.003906.003907-.011718.003907-.019531.800781-2.652344.152343-5.652344-1.945313-7.746094l-48.785156-48.785156 15.171875-15.171875c.828125-.828125 1.21875-1.929688 1.167969-3.015625 0-.011719 0-.023437 0-.035156-.007813-.109375-.015625-.21875-.03125-.328125-.113282-.832032-.492188-1.640625-1.136719-2.277344l-7.664063-7.667969c-.011718-.007812-.023437-.019531-.03125-.03125-5.207031-5.171875-13.617187-5.160156-18.8125.03125l-15.613281 15.617188-39.917969-39.917969 82.085938-82.082031c1.113281-1.117188 2.21875-2.242188 3.3125-3.378907.820312-.855468 1.632812-1.714843 2.441406-2.578124.535156-.574219 1.070313-1.15625 1.605469-1.738282.53125-.582031 1.0625-1.164062 1.585937-1.75.527344-.585937 1.050782-1.175781 1.570313-1.769531 1.042969-1.183594 2.074219-2.378906 3.089844-3.582031.253906-.300782.507812-.601563.761719-.90625 2.59375-3.097656 5.105468-6.261719 7.539062-9.488282.59375-.785156 1.179688-1.570312 1.761719-2.359374.121093-.171876.246093-.34375.371093-.511719.171876-.230469.34375-.464844.511719-.699219.027344-.039062.058594-.085938.085938-.128906.007812-.011719.015625-.023438.027343-.039063.015626-.027343.035157-.058593.054688-.085937.011719-.015625.019531-.03125.027344-.050782.015625-.027343.03125-.054687.050781-.082031.007813-.015625.015625-.03125.023437-.046875.015626-.03125.027344-.054687.042969-.082031.007813-.015625.015625-.035156.023438-.050781.011719-.027344.023437-.054688.035156-.082032.007813-.015624.015625-.03125.019531-.046874.011719-.027344.023438-.054688.035156-.082032.003907-.015625.011719-.035156.015626-.050781.011718-.023437.019531-.054687.027343-.078125.007813-.015625.011719-.035156.015625-.050781.011719-.027344.019532-.054688.023438-.078125.003906-.019532.011718-.039063.015625-.054688.007812-.027344.011719-.054687.019531-.082031.003906-.015625.007812-.03125.007812-.046875.007813-.035156.015626-.070312.019532-.109375.003906-.011719.007812-.019531.007812-.03125.007813-.039063.011719-.078125.015625-.117187.003907-.011719.003907-.023438.003907-.035157.003906-.03125.003906-.0625.007812-.09375 0-.011719 0-.027343 0-.042969.003906-.027343.003906-.058593.003906-.089843 0-.011719 0-.027344 0-.042969 0-.027344 0-.054688 0-.078125 0-.019531 0-.039063 0-.058594-.003906-.023437-.003906-.046875-.003906-.070312-.003906-.019531-.003906-.035157-.003906-.050781-.003906-.027344-.003906-.054688-.007813-.078126-.003906-.019531-.003906-.03125-.007812-.046874-.003907-.027344-.007813-.054688-.011719-.082032-.003906-.015625-.003906-.027344-.007812-.042968-.003907-.027344-.007813-.054688-.015626-.078126-.003906-.019531-.003906-.03125-.007812-.046874-.007812-.027344-.015625-.058594-.019531-.085938-.003907-.011719-.007813-.023438-.007813-.035156-.011718-.039063-.019531-.074219-.035156-.113282 0-.003906 0-.003906 0-.007812-.011719-.039062-.027344-.078125-.039062-.117188-.003907-.011718-.007813-.023437-.011719-.035156-.011719-.023437-.019531-.050781-.03125-.078125-.007813-.015625-.011719-.03125-.019531-.042969-.007813-.023437-.019532-.046874-.027344-.070312-.007813-.015625-.015625-.03125-.023438-.050781-.011718-.019531-.019531-.039063-.03125-.058594-.007812-.019531-.019531-.039063-.027344-.058594-.007812-.015625-.019531-.03125-.027343-.050781-.011719-.015625-.019531-.035156-.03125-.054688-.011719-.015624-.019531-.035156-.03125-.050781-.011719-.019531-.019531-.039062-.035157-.058593-.007812-.011719-.015624-.027344-.023437-.039063-.015625-.023437-.027344-.042969-.042969-.066406-.011718-.011719-.019531-.023438-.027344-.039063-.015624-.019531-.027343-.039062-.042968-.058594-.007813-.015624-.023438-.027343-.03125-.042968-.015625-.019532-.027344-.035156-.042969-.054688-.007813-.007812-.015625-.019531-.023437-.03125-.0625-.074218-.125-.144531-.195313-.214844-.003906-.007812-.011719-.011718-.015625-.019531-.019531-.023437-.039062-.042969-.0625-.0625-.007812-.007812-.019531-.015625-.027344-.023437-.019531-.023438-.042968-.039063-.066406-.058594-.007812-.007812-.015625-.015625-.023438-.023438-.019531-.019531-.042968-.039062-.066406-.058593-.007812-.003907-.019531-.011719-.027344-.019531-.023437-.019532-.046874-.035157-.066406-.054688-.007812-.007812-.019531-.011719-.027344-.019531-.023437-.015625-.046874-.035157-.070312-.050781-.007812-.007813-.015625-.011719-.027344-.019532-.023437-.015625-.050781-.035156-.074218-.050781-.007813-.003906-.015626-.007813-.019532-.011719-.027344-.015625-.054687-.035156-.085937-.050781v-.003906c-.164063-.097657-.335938-.179688-.515625-.246094-.003906-.003906-.007813-.007813-.011719-.007813-.03125-.011718-.066406-.023437-.101563-.035156-.003906 0-.007812-.003906-.011718-.003906-.03125-.007812-.066406-.019531-.097656-.027344-.007813-.003906-.011719-.003906-.019532-.007812-.03125-.011719-.066406-.019532-.097656-.027344-.003906 0-.007812 0-.011719-.003906-.039062-.007813-.070312-.015625-.105469-.019532-.003906 0-.003906 0-.007812-.003906-.035156-.007812-.074219-.011718-.109375-.019531-.003906 0-.003906 0-.007813 0-.269531-.042969-.550781-.042969-.832031-.003906-.003906 0-.007812 0-.007812 0-.035157.007812-.074219.011719-.109375.019531-.003906 0-.011719 0-.019532.003906-.035156.003906-.070312.011719-.109374.019532-.003907.003906-.007813.003906-.011719.003906-.035157.007812-.074219.015625-.109375.03125-.003906 0-.007813 0-.011719.003906-.039063.007812-.074219.019531-.113281.03125-.003906.003906-.007813.003906-.011719.003906-.039063.011719-.078125.027344-.113281.042969-.261719.097656-.527344.234375-.78125.421875-10.21875 7.414062-19.835938 15.625-28.761719 24.550781l-82.089844 82.085938-82.085937-82.085938c-8.925782-8.925781-18.539063-17.132812-28.757813-24.546875-.257812-.1875-.519531-.324218-.78125-.425781-.039062-.015625-.074219-.027344-.113281-.039063-.003906-.003906-.007812-.003906-.011719-.003906-.039062-.011718-.074219-.023437-.113281-.035156-.003906 0-.007812 0-.011719-.003906-.039062-.011719-.074219-.019532-.113281-.03125-.003906 0-.007812 0-.011719 0-.035156-.007813-.070312-.015625-.105469-.023438-.007812 0-.015624 0-.019531-.003906-.039062-.003906-.074219-.011719-.109375-.015625-.003906 0-.007812 0-.007812-.003906-.28125-.039063-.5625-.035157-.832032.007812-.003906 0-.003906 0-.007812 0-.039062.003907-.074219.011719-.109375.019531-.003906 0-.003906 0-.007813 0-.035156.007813-.070312.015626-.105468.023438-.003906 0-.011719 0-.015625.003906-.03125.007813-.066407.015625-.097657.027344-.003906 0-.011718.003906-.015624.003906-.035157.011719-.066407.019532-.097657.03125-.003906 0-.007812 0-.011719.003906-.035156.007813-.066406.019532-.101562.03125-.003906.003907-.011719.007813-.015625.007813-.175781.066406-.347656.148437-.511719.25h-.003906c-.027344.019531-.058594.035156-.085938.054687-.003906.003907-.011718.003907-.015624.007813-.027344.019531-.050782.035156-.078126.054687-.007812.003907-.015624.011719-.023437.015626-.023437.015624-.046875.035156-.070313.054687-.007812.003906-.019531.011719-.027343.019531-.023438.015625-.046875.035156-.066407.054688-.011718.003906-.019531.011718-.027343.019531-.023438.019531-.046875.035156-.070313.058594-.007812.007812-.015625.011719-.023437.019531-.019531.019531-.039063.039062-.0625.058594-.011719.007812-.019531.019531-.027344.027344-.019531.019531-.042969.039062-.0625.058593-.007813.007813-.011719.011719-.019531.019531-.074219.078126-.148438.160157-.214844.246094h-.003906c-.015625.019532-.03125.042969-.042969.0625-.011719.011719-.019531.027344-.027344.039063-.015625.019531-.03125.039062-.042969.058593-.011718.015626-.019531.027344-.027343.039063-.015625.019531-.03125.042969-.042969.066406-.011719.011719-.019531.027344-.027344.039063-.011718.019531-.023437.039062-.03125.058594-.011718.015624-.023437.035156-.03125.050781-.011718.019531-.023437.039062-.03125.054687-.007812.019532-.019531.035156-.027344.050782-.011718.019531-.019531.039062-.03125.058593-.007812.019531-.015624.039063-.027343.058594-.007813.015625-.015625.035156-.023438.050781-.011719.023438-.019531.046875-.03125.070313-.003906.011719-.011719.027343-.015625.042969-.011718.027343-.019531.054687-.03125.078124-.003906.015626-.011718.027344-.011718.035157-.015626.039062-.027344.078125-.039063.117187 0 .003906-.003906.003906-.003906.007813-.011719.039062-.019531.074219-.03125.113281-.003907.011719-.007813.023438-.007813.035156-.007812.027344-.015625.058594-.019531.085938-.003906.015625-.007813.027344-.011719.046875-.003906.023437-.007812.050781-.011718.078125-.003907.011718-.003907.027344-.007813.042968-.003906.027344-.007813.054688-.011719.082032 0 .015625-.003906.027344-.003906.046875-.003906.023437-.007812.050781-.007812.078125-.003907.015625-.003907.03125-.007813.050781 0 .023437 0 .046875-.003906.070313v.058593.078125.042969c0 .03125 0 .0625.003906.089844v.042969c.003906.03125.007813.0625.011719.09375v.035156c.003906.039062.011718.078125.015625.117187.003906.011719.003906.019531.007812.03125.003907.035157.011719.074219.019531.109375.003907.015625.007813.03125.007813.046875.007813.027344.011719.054688.019531.082031.003906.019532.011719.035157.015625.054688.007813.023438.015625.050781.023438.078125.007812.015625.011719.035156.015625.050781.007812.027344.019531.054688.027344.078125.007812.019531.015624.035157.019531.050781.011719.027344.019531.054688.03125.082032.007812.015625.015625.03125.019531.046875.011719.03125.027344.054687.039062.082031.007813.015625.015626.035156.023438.050781.011719.027344.023438.050781.039062.082031.011719.015626.019532.03125.027344.046876.011719.027343.03125.054687.046875.082031.007813.019531.019531.035156.027344.050781.019531.027344.035156.058594.054687.085938.007813.015624.019532.027343.027344.042968.027344.039063.058594.085938.089844.125.167969.234375.335938.46875.507812.699219.121094.167969.246094.339844.371094.511719.582032.789062 1.167969 1.574218 1.761719 2.359375 2.433594 3.226562 4.949219 6.390625 7.539063 9.488281.253906.300781.507812.605469.761718.90625 1.019532 1.203125 2.050782 2.398438 3.089844 3.582031.519531.59375 1.042969 1.183594 1.570312 1.769531.523438.585938 1.054688 1.171876 1.585938 1.75.53125.582032 1.070312 1.164063 1.605469 1.738282.808593.863281 1.621093 1.722656 2.441406 2.578125 1.09375 1.136719 2.199219 2.261719 3.3125 3.378906l82.085937 82.082031-39.917968 39.917969-15.613282-15.617187c-5.195312-5.191407-13.605468-5.203126-18.8125-.03125-.011718.011718-.023437.023437-.03125.03125l-7.667968 7.667968c-.640625.640625-1.019532 1.445313-1.132813 2.277344-.015625.109375-.027343.21875-.03125.328125 0 .011719-.003906.023437-.003906.039063-.050781 1.082031.339844 2.183593 1.167969 3.011718l15.175781 15.171875-48.785156 48.785157c-2.097657 2.097656-2.746094 5.09375-1.949219 7.746093.003906.007813.003906.015625.007812.019531.019532.070313.042969.136719.0625.203126l.015626.039062c.050781.148438.105468.296875.164062.445312.003906.007813.003906.011719.007812.015626.03125.066406.058594.132812.085938.195312.003906.015625.011719.027344.019531.046875.027344.058594.058594.125.089844.183594.003906.007812.007813.019531.011719.027343.035156.070313.070312.140626.105468.210938.003907.007812.007813.015625.011719.023438.035157.058593.066407.117187.097657.179687.011718.015625.023437.035156.03125.054687.03125.050782.0625.101563.09375.15625.011718.015626.019531.03125.027343.042969.042969.066407.085938.132813.128907.199219.003906.007812.007812.011719.011718.015625.039063.0625.078125.117187.117188.175781.011718.015625.027344.035156.039062.050782.035156.046874.070313.097656.105469.144531.015625.019531.027344.035156.039063.054687.050781.0625.097656.121094.148437.183594l.003906.003906c.050781.058594.097657.117188.148438.175782.011719.015624.027343.035156.046875.050781.039062.042969.078125.089843.117187.132812.015625.015625.03125.03125.046875.050781.054688.058594.109375.113282.167969.171876l8.722656 8.722656c.296875.292968.621094.53125.972657.714844 17.34375 15.546874 50.273437 7.8125 67.816406-9.730469 6.023437-6.023438 10.171875-13.167969 12.417968-20.636719.820313-.121094 1.609376-.496094 2.242188-1.128906l7.664062-7.664063c5.203126-5.203125 5.203126-13.640625 0-18.84375l-9.082031-9.082031c0-.003906 0-.003906-.003906-.003906l-6.53125-6.53125 39.910156-39.917969 39.914063 39.914063-6.527344 6.53125c-.003906 0-.003906 0-.003906.003906l-9.082032 9.082031c-5.207031 5.203125-5.207031 13.640625 0 18.84375l7.664063 7.664063c.628906.632812 1.421875 1.007812 2.242187 1.128906 2.246094 7.46875 6.394532 14.613281 12.417969 20.636718 17.542969 17.542969 50.472657 25.277344 67.816407 9.730469.347656-.183593.675781-.421875.96875-.714843l8.726562-8.722657c.054688-.058593.109375-.113281.164062-.171875.019532-.019531.03125-.035156.046876-.050781zm-34.863282 10.097656-.074218-.003906c-.136719 0-.273438-.007813-.414063-.007813-.015625 0-.035156-.003906-.050781-.003906-.136719-.003906-.273438-.007812-.410156-.011718-.03125 0-.058594 0-.089844-.003907-.128906-.003906-.261719-.007812-.390625-.015625-.03125 0-.058594 0-.089844-.003906-.132813-.003906-.261719-.011719-.394531-.019531-.023438 0-.050782-.003907-.074219-.003907-.140625-.007812-.28125-.015624-.421875-.027343-.011719 0-.023438 0-.03125 0-.148438-.011719-.292969-.019531-.441406-.03125-.023438-.003907-.042969-.003907-.066406-.007813-.144532-.011718-.285157-.023437-.429688-.035156-.003906 0-.007812-.003906-.011719-.003906-1.429687-.125-2.867187-.320313-4.308593-.582032-.019532-.003906-.035157-.007812-.054688-.011718-.140625-.023438-.28125-.050782-.421875-.078125-.023437-.003907-.046875-.007813-.070313-.011719-.128906-.023438-.253906-.046875-.382812-.074219-.042969-.007812-.082031-.015625-.125-.023437-.117188-.023438-.230469-.042969-.347656-.070313-.050782-.011719-.097656-.019531-.148438-.03125-.121094-.023437-.238281-.050781-.351562-.078125-.046875-.007812-.089844-.019531-.136719-.027344-.121094-.03125-.246094-.054687-.367187-.082031-.039063-.011719-.078126-.019531-.121094-.03125-.125-.027343-.25-.054687-.375-.085937-.039063-.007813-.078125-.019532-.117188-.027344-.117187-.027344-.230468-.054688-.351562-.085938-.054688-.011718-.109375-.027343-.167969-.042968-.109375-.027344-.214844-.050782-.324219-.082032-.050781-.011718-.105468-.027343-.15625-.039062-.113281-.027344-.222656-.058594-.335937-.085938-.054688-.015624-.113281-.03125-.171875-.046874-.105469-.027344-.210938-.058594-.320313-.089844-.054687-.011719-.109375-.027344-.164062-.042969-.109375-.03125-.21875-.0625-.328125-.09375-.058594-.019531-.121094-.035156-.183594-.050781-.097656-.027344-.199219-.058594-.300781-.089844-.058594-.015625-.121094-.035156-.183594-.054688-.105469-.03125-.214844-.0625-.320313-.097656-.058593-.015625-.113281-.03125-.167968-.050781-.105469-.03125-.207032-.0625-.3125-.097656-.0625-.019531-.128906-.039063-.191406-.058594-.105469-.035156-.207032-.066406-.308594-.101563-.046875-.015624-.09375-.027343-.140625-.042968-.117188-.039063-.238281-.078125-.355469-.121094-.03125-.007812-.058594-.019531-.089844-.027344-.132812-.042968-.265625-.089844-.402344-.136718-.003906-.003907-.011718-.003907-.015624-.007813-.746094-.257813-1.492188-.527344-2.230469-.816406-.054688-.019531-.105469-.039063-.160157-.058594-.097656-.042969-.199218-.082031-.296874-.121094-.0625-.023437-.121094-.046875-.183594-.074219-.085938-.035156-.171875-.070312-.261719-.105468-.074219-.03125-.152344-.0625-.230469-.09375-.085937-.035156-.171875-.070313-.257812-.105469-.070313-.03125-.140625-.058594-.210938-.089844-.089844-.039062-.179687-.074219-.265625-.113281-.074219-.03125-.148437-.0625-.21875-.09375-.082031-.035156-.164062-.074219-.246093-.109375-.078126-.03125-.15625-.066406-.234376-.101563-.082031-.035156-.160156-.070312-.242187-.109374-.078125-.03125-.152344-.066407-.226563-.101563-.082031-.035156-.167968-.074219-.253906-.113281-.074218-.035156-.148437-.070313-.226562-.105469s-.15625-.074219-.234375-.109375c-.082031-.039062-.164063-.078125-.246094-.117188-.074219-.035156-.152344-.070312-.226563-.105468-.074218-.039063-.148437-.074219-.226562-.113282-.085938-.039062-.171875-.082031-.257812-.125-.066407-.035156-.136719-.066406-.207032-.101562-.082031-.042969-.167968-.085938-.25-.125-.074218-.035156-.144531-.074219-.214844-.109375-.085937-.042969-.167968-.082031-.25-.128906-.070312-.035157-.144531-.074219-.21875-.109375-.078124-.042969-.15625-.082032-.234374-.125-.078126-.039063-.152344-.078125-.230469-.121094s-.15625-.082031-.234375-.125c-.066406-.035156-.140625-.074219-.210938-.113281-.082031-.042969-.164062-.089844-.25-.136719-.066406-.035156-.132812-.070312-.199218-.109375-.082032-.042969-.171876-.09375-.253907-.140625-.066406-.035156-.132812-.070312-.199219-.109375-.085937-.046875-.167968-.09375-.25-.144531-.074218-.039063-.144531-.082032-.214843-.121094-.074219-.042969-.152344-.085938-.230469-.132812-.082031-.046876-.167969-.097657-.25-.144532-.066406-.039062-.128906-.074218-.191406-.113281-.09375-.054687-.1875-.113281-.28125-.167969-.054688-.035156-.109375-.066406-.164063-.101562-.289062-.175782-.582031-.355469-.871093-.535156-.078126-.050782-.160157-.105469-.242188-.15625-.0625-.039063-.125-.078126-.1875-.121094-.085938-.050782-.167969-.109375-.253906-.164063-.058594-.035156-.117188-.074219-.175782-.113281-.082031-.054688-.160156-.105469-.242187-.160156-.0625-.042969-.125-.082032-.1875-.125-.074219-.046875-.144531-.097656-.210937-.140625-.074219-.050781-.144532-.097657-.21875-.148438-.0625-.042969-.121094-.082031-.183594-.125-.082032-.058593-.164063-.113281-.246094-.171875-.058594-.039062-.113281-.074218-.167969-.117187-.082031-.054688-.160156-.109375-.238281-.164063-.066406-.050781-.136719-.097656-.199219-.144531-.074219-.050781-.144531-.101563-.214843-.15625-.066407-.042969-.128907-.089844-.191407-.136719-.074219-.054687-.148437-.109375-.222656-.164062-.0625-.046875-.121094-.089844-.183594-.136719-.074219-.054687-.148437-.109375-.21875-.164063-.066406-.046874-.128906-.097656-.195312-.148437-.070313-.050781-.140625-.105469-.207031-.15625-.0625-.050781-.125-.101563-.191407-.148437-.070312-.054688-.140625-.109376-.207031-.164063-.0625-.046875-.125-.09375-.183594-.144531-.074218-.058594-.144531-.113282-.21875-.171875-.058594-.046875-.113281-.09375-.171875-.140625-.070312-.054688-.144531-.117188-.21875-.175782-.058593-.046874-.113281-.09375-.171875-.140624-.066406-.054688-.136718-.109376-.199218-.164063-.066407-.054687-.132813-.109375-.199219-.164063-.0625-.054687-.125-.109374-.1875-.164062-.0625-.050781-.121094-.101562-.179688-.152344-.074219-.0625-.144531-.121094-.214843-.183594-.050782-.046874-.105469-.09375-.160157-.140624-.066406-.058594-.132812-.117188-.199219-.175782-.058593-.054687-.117187-.105468-.175781-.160156-.0625-.054688-.121093-.109375-.179687-.164062-.0625-.058594-.125-.113282-.1875-.171876-.070313-.0625-.136719-.128906-.207032-.1875-.046874-.046874-.09375-.09375-.144531-.136718-.082031-.074219-.164062-.152344-.246093-.230469-.035157-.035156-.078126-.074219-.113282-.109375-.089844-.082031-.175781-.167969-.261718-.25-.03125-.027344-.0625-.058594-.089844-.089844-.121094-.113281-.234375-.230468-.347656-.34375-5.707032-5.707031-9.414063-12.605468-11.066407-19.703125l16.464844-16.464843c-.070313.070312-.140625.144531-.210937.21875-.019532.023437-.039063.042968-.058594.066406-.054688.0625-.105469.125-.160156.1875-.015626.019531-.03125.039062-.046876.054687-.0625.082031-.125.160157-.1875.242188-.011718.019531-.027343.039062-.039062.058593-.046875.0625-.09375.128907-.136719.195313-.019531.023437-.035156.050781-.050781.078125-.050781.074219-.097656.148438-.140625.226562-.007813.011719-.011719.019532-.019531.03125-.050782.085938-.097656.171876-.144532.261719-.015624.023438-.023437.046875-.039062.070313-.035156.070312-.070312.140625-.101562.207031-.011719.027344-.023438.050781-.035157.074219-.042969.089844-.082031.183594-.121093.273437-.003907.011719-.011719.027344-.015626.042969-.03125.078125-.0625.15625-.089843.234375-.007813.027344-.019531.058594-.027344.085937-.027344.078126-.050781.152344-.074219.226563-.007812.019531-.011718.039063-.019531.058594-.027344.089843-.050781.1875-.074219.277343-.007812.027344-.015625.054688-.019531.085938-.019531.070312-.035156.140625-.046875.210938-.007812.03125-.011719.058593-.019531.089843-.015625.09375-.035157.191407-.046875.285157-.003906.011718-.003906.019531-.003906.03125-.011719.085937-.023438.171874-.03125.261718-.003907.03125-.007813.058594-.007813.085938-.007813.074218-.011719.152344-.019531.226562 0 .023438-.003906.050782-.003906.074219-.003907.097656-.003907.191406-.003907.285156v.078125c0 .070313 0 .144532.003907.21875.003906.03125.003906.0625.003906.089844.007812.09375.015625.183594.023437.273438v.023437c.011719.09375.023438.191406.035157.285156.003906.027344.007812.058594.011718.085938.011719.074219.023438.148437.035156.222656.007813.023437.011719.050781.015626.074219.015624.097656.039062.191406.0625.285156.003906.019531.007812.035156.015624.058594.019532.074218.039063.152344.0625.226562.007813.03125.015626.058594.023438.085938.023438.082031.050781.164062.078125.25.003906.011718.007813.023437.011719.035156.003906.003906.003906.003906.003906.007812.046875.132813.097656.261719.152344.390626.160156.378906.355468.746093.585937 1.097656.125.1875.261719.375.410157.550781.089843.113281.183593.21875.28125.328125.0625.066406.125.132812.1875.195312.417968.417969.875.769532 1.363281 1.058594.195312.117188.394531.21875.597656.3125.304687.144532.613281.257813.933594.351563.210937.0625.425781.117187.640625.15625.324218.0625.652344.105469.980468.121093.21875.007813.4375.007813.65625 0 .328126-.015624.65625-.054687.980469-.121093.21875-.039063.429688-.09375.644531-.15625.285157-.082031.566407-.1875.839844-.308594.300782-.136719.589844-.289063.871094-.46875.417969-.265625.816406-.578125 1.179688-.941406-1 1.003906-1.628907 2.238281-1.878907 3.53125-.039062.21875-.074219.433593-.09375.652343s-.03125.4375-.03125.65625c0 .765626.128907 1.535157.382813 2.265626.304687.863281.785156 1.675781 1.4375 2.382812.058594.066406.121094.128906.1875.191406v.003906c.1875.183594.378906.355469.582031.515626.25.203124.511719.382812.78125.542968.585937.34375 1.210937.59375 1.851563.75.320312.078125.644531.132813.972656.164063.109375.011719.21875.019531.328125.023437.328125.015625.660156.007813.988281-.023437.109375-.007813.214844-.023438.324219-.039063.328125-.046875.648437-.117187.964843-.210937.636719-.191407 1.25-.472657 1.820313-.847657.1875-.125.375-.261718.554687-.40625.175782-.148437.351563-.304687.515626-.46875-1.335938 1.335938-2.003907 3.085938-2.003907 4.839844 0 1.207032.316407 2.410156.949219 3.480469.171875.292969.367188.574219.585938.84375.089843.109375.1875.21875.285156.324219.058594.066406.121094.128906.1875.195312.167968.167969.339844.324219.519531.46875.265625.21875.550781.417969.839844.589844.488281.285156 1 .507812 1.53125.664062.105469.03125.210937.0625.320312.085938.429688.105469.863281.167969 1.300781.1875.109376.007812.21875.007812.328126.007812 1.753906 0 3.503906-.667968 4.84375-2.003906-1.496094 1.5-2.15625 3.519532-1.976563 5.476563.015625.136719.03125.269531.050781.40625.058594.378906.148438.757812.273438 1.125.054687.167969.121094.339843.191406.503906.160156.382813.355469.75.585938 1.101563.125.1875.261718.371093.40625.550781.089843.109375.1875.21875.285156.324219.058594.066406.121094.132812.183594.195312.167968.167969.34375.324219.519531.472656.183593.144532.367187.28125.554687.40625.351563.234375.722656.425782 1.097656.585938.167969.070312.335938.136718.507813.191406.175781.058594.355469.113281.535156.15625.195313.050781.390625.085938.589844.117188.132813.019531.269531.039062.40625.050781.101563.007812.203125.015625.300781.019531.769532.039062 1.539063-.050781 2.28125-.273438.527344-.15625 1.042969-.375 1.527344-.664062.292969-.171875.574219-.367188.84375-.589844.175781-.144531.351562-.300781.515625-.46875-1.335937 1.339844-2.003906 3.09375-2.003906 4.84375 0 .109375.003906.21875.007812.328125.023438.4375.085938.875.191407 1.300781.023437.105469.050781.214844.085937.320313.15625.53125.375 1.042969.664063 1.53125.171874.292969.367187.574219.589843.839844.089844.113281.183594.21875.28125.324219.0625.066406.125.132812.1875.199218.167969.167969.339844.324219.519531.46875.234376.191406.480469.363282.730469.519532.261719.15625.527344.296874.800781.421874.273438.121094.558594.226563.839844.3125.105469.03125.214844.058594.320313.085938.328125.078125.660156.132812.992187.164062-.003906 0-.003906.003907-.007812.003907-.136719.042969-.269532.085937-.40625.128906-.007813.003906-.011719.003906-.019532.007813-2.640624.824218-5.472656 1.28125-8.410156 1.410156-.003906 0-.003906 0-.003906 0-.144531.007812-.292969.011718-.4375.015625l-.042969.003906c-.136719.003906-.273437.007813-.410156.007813-.023437 0-.046875.003906-.066406.003906-.140625 0-.28125.003906-.421875.003906h-.039063c-.144531.003906-.289062.003906-.433593.003906-.015626 0-.027344 0-.039063 0-.140625.019532-.277344.015625-.417969.015625zm22.703125-9.625-.011719-.011719c.113282-.097656.222657-.199218.328126-.308593zm-164.816406-5.855469c-.03125.027344-.0625.058594-.09375.089844-.085937.082032-.171875.167969-.261719.25-.035156.039063-.078125.074219-.113281.109375-.082031.078125-.164063.15625-.246094.230469-.046875.046875-.097656.089844-.144531.136719-.070312.0625-.136719.125-.207031.1875-.0625.058593-.125.113281-.183594.171875-.0625.054687-.121094.109375-.183594.164062-.058593.054688-.117187.105469-.175781.160156-.066406.058594-.132812.117188-.199219.175782-.054687.046875-.105469.09375-.160156.140625-.070313.0625-.144531.125-.214844.183593-.058593.050782-.117187.101563-.179687.152344-.0625.054688-.125.109375-.1875.164063-.066406.050781-.132813.109375-.195313.164062-.066406.054688-.132812.109375-.203125.164063-.058594.046875-.113281.097656-.171875.140625-.074219.0625-.144531.121093-.21875.175781-.058593.046875-.113281.09375-.171875.140625-.070312.058594-.144531.113281-.21875.171875-.058594.050781-.121094.097656-.179687.144531-.070313.054688-.140625.109375-.210938.164063-.066406.050781-.125.097656-.191406.148437-.070313.050781-.140625.105469-.207031.160157-.0625.046874-.128906.097656-.191406.144531-.074219.054687-.148438.109375-.21875.164062-.0625.046875-.121094.089844-.183594.136719-.074219.054688-.148438.109375-.222656.164062-.0625.042969-.128907.089844-.191407.140626-.074219.050781-.144531.101562-.214843.152343-.066407.046875-.132813.097657-.199219.144531-.078125.054688-.160157.109376-.238281.164063-.054688.042969-.113282.078125-.167969.117187-.082031.058594-.164063.117188-.25.171876-.058594.042968-.121094.085937-.183594.125-.070313.050781-.144531.097656-.214844.148437-.070312.046875-.140625.09375-.210937.140625-.0625.042969-.125.085938-.191406.125-.078126.054688-.160157.105469-.238282.160156-.058594.035156-.121094.074219-.179687.113282-.082031.054687-.167969.113281-.25.164062-.0625.042969-.128907.082031-.191407.121094-.078124.050781-.160156.101562-.238281.15625-.289062.179687-.582031.359375-.875.535156-.054687.035156-.109375.066406-.164062.101562-.09375.054688-.1875.113282-.28125.167969-.0625.039063-.125.074219-.191407.113281-.082031.046876-.167968.097657-.25.144532-.074218.046875-.152343.089844-.230468.132812-.070313.039063-.140625.082032-.210938.121094-.085937.050781-.167968.097656-.25.144531-.066406.039063-.132812.074219-.199218.109375-.085938.046875-.167969.097656-.253907.140625-.066406.039063-.132812.074219-.203125.109375-.082031.046875-.164062.09375-.25.136719-.070312.039063-.140625.078125-.210937.113281-.078125.042969-.15625.082032-.234375.125-.074219.039063-.152344.082032-.230469.121094-.078125.042969-.160156.085938-.238281.128906-.066406.035156-.136719.070313-.207032.105469-.085937.046875-.175781.089844-.265624.136719-.066407.03125-.136719.066406-.203126.101562-.085937.042969-.171874.082032-.257812.128906-.066406.03125-.136719.066407-.203125.101563-.085937.039063-.171875.082031-.257813.125-.078124.035156-.152343.074219-.230468.109375-.074219.035156-.152344.070312-.226563.109375-.082031.035156-.160156.074219-.242187.113281-.078125.039063-.15625.074219-.238282.113282-.074218.03125-.148437.066406-.222656.101562-.085937.039062-.167968.078125-.253906.117188-.078125.035156-.152344.066406-.226562.101562-.082032.035156-.164063.070312-.246094.109375-.078125.03125-.152344.066406-.230469.101563-.082031.035156-.164063.070312-.246094.105468-.074219.035156-.148437.0625-.21875.09375-.089843.039063-.179687.078125-.269531.117188-.066406.027344-.136719.058594-.207031.085937-.085938.035157-.175781.074219-.261719.109375-.074219.03125-.152344.0625-.230469.09375-.085937.035156-.171875.070313-.261719.105469-.058593.023437-.121093.046875-.179687.070313-.101563.042968-.199219.082031-.300781.121093-.050782.019531-.101563.039063-.15625.0625-.742188.285157-1.484375.558594-2.234375.816407-.003907 0-.011719.003906-.015625.003906-.132813.046875-.269532.09375-.402344.136718-.03125.011719-.058594.019532-.089844.03125-.117187.039063-.238281.078126-.355468.117188-.046876.015625-.09375.03125-.140626.046875-.101562.035156-.203124.066406-.304687.097656-.066406.019531-.132813.042969-.195313.0625-.105468.03125-.207031.0625-.308593.097657-.058594.015624-.113281.03125-.167969.050781-.109375.035156-.21875.066406-.324219.097656-.0625.019531-.121093.035156-.183593.054687-.101563.027344-.199219.058594-.300782.085938-.0625.019531-.125.035156-.183594.054688-.109374.03125-.21875.058593-.328124.09375-.054688.011718-.109376.027343-.164063.042968-.105469.03125-.214844.058594-.320313.085938-.058593.019531-.113281.035156-.171874.046875-.113282.03125-.222657.058593-.335938.089843-.050781.011719-.105469.027344-.15625.039063-.109375.027344-.214844.054687-.324219.082031-.054687.015625-.109375.027344-.167969.042969-.117187.027344-.238281.058594-.351562.085937-.039062.007813-.078125.015626-.117188.023438-.125.03125-.25.0625-.375.089844-.042968.007812-.082031.019531-.121093.027344-.121094.027343-.242188.054687-.367188.082031-.042969.011719-.089843.019531-.136719.03125-.117187.023437-.234374.050781-.351562.074219-.046875.011718-.097656.019531-.148438.03125-.117187.027343-.230468.050781-.347656.074218-.042968.007813-.082031.015625-.125.023438-.128906.027344-.253906.050781-.382812.074218-.023438.003907-.042969.007813-.070313.011719-.140625.027344-.28125.050781-.421875.078125-.015625.003906-.035156.003906-.050781.011719-1.445313.257813-2.882813.453125-4.3125.582031-.003906 0-.007813 0-.011719.003906-.144531.011719-.285156.023438-.425781.035157-.027344 0-.046875.003906-.070313.003906-.148437.011719-.292968.023437-.4375.03125-.015624 0-.023437.003906-.035156.003906-.140625.011719-.28125.019531-.421875.027344-.023437 0-.046875 0-.074219.003906-.128906.007813-.261718.011719-.394531.019531-.03125 0-.058593 0-.089843.003907-.128907.003906-.261719.011719-.390626.015625-.03125 0-.058593 0-.085937.003906-.140625.003906-.277344.007812-.414063.011719-.015624 0-.035156.003906-.050781.003906-.136719.003906-.277343.003906-.414062.007813h-.074219c-.140625.003906-.277344.003906-.417969.003906-.011719 0-.027343 0-.039062 0-.144531 0-.289063 0-.429688 0h-.042969c-.140624-.003906-.28125-.003906-.421874-.007813-.019532 0-.042969 0-.066407 0-.132812-.003906-.273437-.007812-.410156-.011719l-.042969-.003906c-.148437-.003906-.292968-.007812-.433594-.015625h-.003906c-2.941406-.125-5.773437-.585937-8.410156-1.410156-.007812-.003906-.015625-.003906-.023438-.007813-.136718-.039062-.269531-.085937-.40625-.128906-.003906 0-.003906 0-.007812 0 .332031-.03125.664062-.085937.992188-.167968.109374-.027344.214843-.054688.320312-.085938.285156-.082031.566406-.191406.839844-.3125.277344-.121094.542968-.261719.800781-.421875.253906-.15625.496094-.328125.734375-.519531.179688-.144532.351562-.304688.519531-.46875.0625-.066406.125-.128906.183594-.195313.097656-.109375.195313-.214843.285156-.324219.21875-.273437.414063-.554687.589844-.84375.285156-.484374.507813-1 .664063-1.53125.03125-.105468.058593-.210937.085937-.320312.105469-.425781.167969-.863281.1875-1.300781.007813-.109375.007813-.21875.007813-.328125 0-1.75-.667969-3.503906-2.003907-4.839844.167969.164062.339844.320312.519531.464844.265626.222656.550782.417968.839844.589844.488282.289062 1 .511718 1.53125.664062.742188.222656 1.511719.3125 2.277344.277344.101562-.003906.203125-.011719.304688-.023438.136718-.011718.269531-.03125.402343-.050781.199219-.03125.398438-.066406.59375-.117187.179688-.042969.355469-.09375.535157-.152344.167968-.058594.339843-.121094.503906-.195313.382812-.160156.75-.351562 1.097656-.585937.191406-.125.378906-.261719.554688-.40625.179687-.144532.351562-.300782.519531-.46875.066406-.066406.128906-.128906.1875-.199219.097656-.105469.195312-.210937.285156-.324219.144531-.179687.28125-.363281.40625-.550781.230469-.351563.425781-.722656.585937-1.097656.070313-.167969.132813-.335938.191407-.507813.121093-.367187.210937-.742187.269531-1.125.019531-.136718.039062-.269531.050781-.40625.019531-.207031.03125-.417968.03125-.625 0-.003906 0-.007812 0-.007812 0-1.753906-.667969-3.503906-2.003906-4.84375 1.335937 1.335937 3.089844 2.003906 4.839844 2.003906.550781 0 1.097656-.066406 1.632812-.195312.105469-.027344.210938-.054688.320313-.085938.527344-.15625 1.042968-.378906 1.527344-.667969.292968-.171875.574218-.367187.84375-.585937.179687-.148438.351562-.304688.519531-.472656.0625-.0625.125-.125.183593-.195313.101563-.105469.195313-.210937.285157-.324219.222656-.269531.417969-.546875.589843-.839844.632813-1.070312.945313-2.277343.945313-3.480468 0-1.753906-.667969-3.503906-2.003906-4.84375.167969.167968.339843.324218.519531.46875.179688.148437.363281.28125.554688.410156.570312.375 1.183593.65625 1.816406.84375.320312.09375.644531.164062.96875.210938.105468.019531.214844.03125.324218.042968.328126.03125.65625.039063.984376.023438.113281-.007813.21875-.015625.328124-.023438.328126-.03125.65625-.085937.976563-.164062.640625-.15625 1.265625-.410156 1.847656-.753906.269531-.160157.53125-.339844.78125-.539063.199219-.160156.394531-.332031.582031-.519531.066407-.066406.125-.128906.1875-.191406.65625-.710938 1.132813-1.519532 1.433594-2.382813.257813-.730469.386719-1.5.386719-2.265625 0-.222656-.011719-.4375-.035156-.65625-.019531-.21875-.050781-.4375-.09375-.652344-.25-1.292968-.875-2.53125-1.878907-3.53125.367188.363282.765626.675782 1.183594.941406.277344.175782.566406.332032.867188.464844.273437.121094.558594.230469.84375.3125.210937.0625.425781.117188.640625.15625.324219.0625.652343.101563.980469.117188.21875.011718.4375.011718.660156 0 .324218-.015625.652344-.054688.976562-.117188.21875-.042968.429688-.09375.644532-.15625.316406-.09375.628906-.210937.933593-.351562.203125-.09375.402344-.199219.59375-.3125.488281-.289063.949219-.640625 1.367188-1.058594.0625-.066406.125-.128906.183593-.195312.097657-.109376.195313-.214844.285157-.328126.144531-.179687.28125-.363281.40625-.554687.234375-.351563.425781-.71875.585937-1.097656.054688-.128907.109375-.257813.152344-.386719.003906-.003906.003906-.007812.003906-.011719.003906-.011719.007813-.019531.011719-.03125.03125-.085937.058594-.167969.082031-.25.007813-.03125.015625-.058593.023438-.085937.023437-.074219.042968-.152344.0625-.230469.003906-.019531.007812-.039063.011718-.058594.023438-.09375.046876-.1875.0625-.28125.003907-.027343.011719-.054687.015626-.078125.015624-.074218.027343-.144531.039062-.21875.003906-.03125.007812-.058594.011719-.085937.011719-.097657.023437-.191407.03125-.289063 0-.003906.003906-.011718.003906-.019531.007813-.09375.015625-.183594.019531-.273437.003906-.03125.003906-.0625.003906-.09375.003907-.070313.003907-.144532.003907-.214844 0-.019532.003906-.035156.003906-.050782 0 0 0-.003906 0-.007812 0-.007812 0-.011719 0-.019531 0-.097657-.003906-.191407-.007813-.285157 0-.027343 0-.050781-.003906-.078124-.003906-.074219-.007812-.148438-.015625-.222657-.003906-.027343-.007812-.058593-.007812-.085937-.007813-.089844-.019531-.175782-.03125-.265625-.003907-.007813-.003907-.019531-.003907-.027344-.015624-.097656-.03125-.191406-.050781-.285156-.003906-.03125-.011719-.058594-.015625-.085938-.015625-.074219-.03125-.144531-.046875-.21875-.007812-.023437-.015625-.054687-.023437-.082031-.023438-.09375-.046875-.183594-.074219-.277344-.007813-.019531-.011719-.039062-.019531-.058594-.019532-.074218-.046875-.152343-.074219-.226562-.007813-.027344-.019531-.054688-.027344-.085938-.027343-.078124-.058593-.15625-.089843-.234374-.003907-.015626-.011719-.03125-.015626-.042969-.039062-.089844-.078124-.179688-.121093-.269531-.011719-.027344-.023438-.050782-.035157-.078126-.03125-.070312-.066406-.136718-.101562-.207031-.011719-.023437-.023438-.046875-.039062-.070312-.042969-.089844-.09375-.175781-.144532-.261719-.007812-.011719-.011718-.019531-.019531-.03125-.042969-.074219-.09375-.152344-.140625-.226562-.015625-.027344-.035156-.050782-.050781-.078126-.042969-.066406-.089844-.132812-.136719-.195312-.011719-.019531-.027344-.042969-.039062-.058594-.0625-.082031-.125-.164062-.1875-.242187-.015626-.019531-.03125-.035157-.046876-.054688-.054687-.0625-.105468-.125-.164062-.1875-.015625-.023437-.035156-.042969-.058594-.0625-.066406-.078125-.136718-.152343-.210937-.222656l16.46875 16.46875c-1.65625 7.097656-5.363281 13.992187-11.066407 19.699219-.105468.09375-.222656.210937-.335937.324218zm-59.550781 5.847657-.011719.007812-.316406-.316406c.105469.105469.214843.207031.328125.308594zm0 0" fill="#382b73"/><path d="m357.089844 338.203125-5.777344 5.773437c-3.191406 3.191407-8.363281 3.191407-11.550781 0l-53.113281-53.109374c-3.1875-3.1875-3.1875-8.359376 0-11.550782 3.191406-3.191406 8.363281-3.191406 11.554687 0zm0 0" fill="#e43d91"/><path d="m353.957031 341.332031-2.644531 2.644531c-1.460938 1.464844-3.832031 1.464844-5.292969 0l-59.371093-59.371093c-1.460938-1.460938-1.460938-3.828125 0-5.292969 1.460937-1.460938 3.828124-1.460938 5.292968 0zm0 0" fill="#ef5a9d"/><path d="m290.890625 275.070312-8.484375 8.484376-134.175781-134.171876c-8.925781-8.925781-17.136719-18.542968-24.550781-28.761718-2.046876-2.820313 1.457031-6.320313 4.277343-4.273438 10.21875 7.414063 19.832031 15.621094 28.757813 24.546875zm0 0" fill="#fff"/><path d="m127.601562 116.703125c-.1875-.257813-.324218-.519531-.425781-.78125-2.628906-.992187-5.355469 2.136719-3.496093 4.699219 7.414062 10.21875 15.625 19.835937 24.550781 28.761718l134.175781 134.175782 3.917969-3.921875-134.175781-134.175781c-8.925782-8.925782-17.132813-18.542969-24.546876-28.757813zm0 0" fill="#d1d3d4"/><path d="m312.238281 305.550781-6.0625 6.066407c-2.675781 2.671874-7.011719 2.671874-9.6875 0-2.675781-2.675782-2.675781-7.011719 0-9.6875l6.0625-6.066407zm0 0" fill="#ef5a9d"/><path d="m299.316406 308.785156c-2.675781-2.671875-2.675781-7.011718 0-9.6875l-2.828125 2.828125c-2.675781 2.675781-2.675781 7.011719 0 9.6875s7.015625 2.675781 9.691407 0c-.003907 0-4.1875-.152343-6.863282-2.828125zm0 0" fill="#e43d91"/><path d="m321.929688 315.238281-6.066407 6.0625c-2.675781 2.675781-7.011719 2.675781-9.6875 0-2.675781-2.671875-2.675781-7.011719 0-9.6875l6.0625-6.0625zm0 0" fill="#ef5a9d"/><path d="m331.613281 324.925781-6.0625 6.0625c-2.675781 2.675781-7.011719 2.675781-9.6875 0s-2.675781-7.011719 0-9.6875l6.0625-6.0625zm0 0" fill="#ef5a9d"/><path d="m341.300781 334.613281-6.0625 6.066407c-2.675781 2.675781-7.011719 2.675781-9.6875 0-2.675781-2.675782-2.675781-7.015626 0-9.691407l6.0625-6.0625zm0 0" fill="#ef5a9d"/><path d="m350.988281 344.300781-6.0625 6.0625c-2.671875 2.675781-7.011719 2.675781-9.6875 0s-2.675781-7.011719 0-9.6875l6.0625-6.0625zm0 0" fill="#ef5a9d"/><path d="m362.9375 344.050781-8.726562 8.722657c-1.5625 1.5625-4.09375 1.5625-5.65625 0l-3.019532-3.019532 11.554688-11.550781zm0 0" fill="#fede3a"/><path d="m362.9375 344.050781-54.289062-54.285156 5.503906-5.503906 48.785156 48.785156c3.039062 3.039063 3.039062 7.964844 0 11.003906zm0 0" fill="#fede3a"/><path d="m311.402344 287.015625-2.75 2.75 54.285156 54.285156c1.003906-1 1.675781-2.207031 2.015625-3.488281zm0 0" fill="#f7cb15"/><g fill="#e43d91"><path d="m306.175781 311.613281 2.550781-2.550781-2.828124-2.828125-2.550782 2.550781c-2.179687 2.179688-5.449218 2.554688-8.039062 1.179688.3125.589844.683594 1.15625 1.179687 1.648437 2.675781 2.675781 7.015625 2.675781 9.6875 0zm0 0"/><path d="m315.863281 321.300781 2.550781-2.546875-2.828124-2.828125-2.550782 2.546875c-2.179687 2.179688-5.449218 2.554688-8.039062 1.179688.3125.589844.6875 1.15625 1.183594 1.648437 2.671874 2.675781 7.007812 2.675781 9.683593 0zm0 0"/><path d="m325.550781 330.988281 2.550781-2.546875-2.828124-2.828125-2.550782 2.546875c-2.179687 2.183594-5.449218 2.554688-8.039062 1.183594.3125.585938.683594 1.152344 1.179687 1.644531 2.675781 2.675781 7.011719 2.675781 9.6875 0zm0 0"/><path d="m344.648438 344.984375-2.550782 2.550781c-2.179687 2.179688-5.449218 2.554688-8.039062 1.179688.3125.589844.683594 1.15625 1.179687 1.648437 2.675781 2.675781 7.015625 2.675781 9.691407 0l2.546874-2.550781zm0 0"/><path d="m335.238281 340.675781 2.550781-2.550781-2.828124-2.828125-2.550782 2.550781c-2.179687 2.179688-5.449218 2.550782-8.039062 1.179688.3125.589844.683594 1.15625 1.179687 1.648437 2.675781 2.675781 7.011719 2.675781 9.6875 0zm0 0"/><path d="m309.003906 318.472656c-2.675781-2.671875-2.675781-7.011718 0-9.6875l-2.828125 2.828125c-2.675781 2.675781-2.675781 7.011719 0 9.6875s7.011719 2.675781 9.6875 0c0 0-4.183593-.152343-6.859375-2.828125zm0 0"/><path d="m318.691406 328.160156c-2.675781-2.675781-2.675781-7.011718 0-9.6875l-2.828125 2.828125c-2.675781 2.671875-2.675781 7.011719 0 9.6875s7.011719 2.675781 9.6875 0c0 0-4.183593-.152343-6.859375-2.828125zm0 0"/><path d="m328.378906 337.847656c-2.675781-2.675781-2.675781-7.011718 0-9.6875l-2.828125 2.828125c-2.675781 2.671875-2.675781 7.011719 0 9.6875s7.011719 2.675781 9.6875 0c0 0-4.183593-.152343-6.859375-2.828125zm0 0"/><path d="m338.066406 347.535156c-2.675781-2.675781-2.675781-7.011718 0-9.6875l-2.828125 2.828125c-2.675781 2.675781-2.675781 7.011719 0 9.6875s7.011719 2.675781 9.6875 0c0 0-4.183593-.152343-6.859375-2.828125zm0 0"/><path d="m294.871094 309.054688 16.535156-16.535157-2.753906-2.753906-12.164063 12.164063c-1.925781 1.925781-2.464843 4.714843-1.617187 7.125zm0 0"/></g><path d="m354.40625 352.386719c-16.992188 16.996093-51.035156 9.316406-68.980469-8.628907-18.105469-18.105468-19.296875-46.371093-2.65625-63.011718 1.5625-1.558594 4.09375-1.558594 5.65625 0 1.5625 1.5625 1.5625 4.097656 0 5.65625-13.519531 13.523437-12.328125 36.710937 2.660157 51.699218 15.011718 15.011719 44.085937 22.210938 57.667968 8.628907 1.558594-1.5625 4.09375-1.5625 5.652344 0 1.5625 1.5625 1.5625 4.09375 0 5.65625zm0 0" fill="#fede3a"/><path d="m346.953125 348.335938c-14.210937 11.355468-41.488281 4.148437-55.871094-10.234376-14.984375-14.984374-16.179687-38.175781-2.65625-51.695312 1.078125-1.082031 1.390625-2.621094.980469-3.984375-1.242188-.347656-2.621094-.050781-3.597656.925781-15.328125 15.328125-14.230469 41.371094 2.449218 58.046875 15.335938 15.335938 43.429688 22.535157 59.914063 11l1.554687-1.175781c.722657-.582031 1.417969-1.207031 2.082032-1.871094.628906-.628906 3.796875-4.007812 3.796875-4.007812l4.308593-4.308594-2.824218-2.828125zm0 0" fill="#f7cb15"/><path d="m329.328125 269.089844-52.902344 52.902344c-1.5625 1.5625-4.097656 1.5625-5.65625 0l-7.667969-7.664063c-5.203124-5.203125-5.203124-13.640625 0-18.84375l39.714844-39.714844c5.207032-5.207031 13.640625-5.207031 18.84375 0l7.667969 7.664063c1.558594 1.558594 1.558594 4.09375 0 5.65625zm0 0" fill="#f7cb15"/><path d="m318.847656 279.566406-31.945312 31.945313c-1.230469 1.230469-3.226563 1.230469-4.457032 0l-10.257812-10.257813c-4.101562-4.101562-4.101562-10.753906 0-14.859375l21.542969-21.542969c4.105469-4.105468 10.753906-4.105468 14.859375 0l10.257812 10.257813c1.230469 1.230469 1.230469 3.230469 0 4.457031zm0 0" fill="#fede3a"/><path d="m320.488281 260.25-52.902343 52.902344c-1.429688 1.429687-3.660157 1.539062-5.226563.355468.234375.277344.476563.554688.742187.816407l7.664063 7.667969c1.5625 1.5625 4.09375 1.5625 5.65625 0l52.902344-52.902344c1.5625-1.5625 1.5625-4.097656 0-5.65625l-7.664063-7.667969c-.265625-.261719-.539062-.503906-.820312-.742187 1.183594 1.570312 1.074218 3.796874-.351563 5.226562zm0 0" fill="#f7cb15"/><path d="m120.511719 338.203125 5.777343 5.773437c3.1875 3.191407 8.359376 3.191407 11.550782 0l53.109375-53.109374c3.191406-3.1875 3.191406-8.359376 0-11.550782-3.1875-3.191406-8.359375-3.191406-11.550781 0zm0 0" fill="#e43d91"/><path d="m123.640625 341.332031 2.648437 2.644531c1.460938 1.464844 3.828126 1.464844 5.289063 0l59.375-59.371093c1.460937-1.460938 1.460937-3.828125 0-5.292969-1.464844-1.460938-3.832031-1.460938-5.292969 0zm0 0" fill="#ef5a9d"/><path d="m186.707031 275.070312 8.488281 8.484376 134.175782-134.175782c8.925781-8.925781 17.136718-18.542968 24.550781-28.757812 2.042969-2.820313-1.457031-6.324219-4.277344-4.277344-10.21875 7.414062-19.835937 15.625-28.761719 24.550781zm0 0" fill="#fff"/><path d="m350 116.703125c.1875-.257813.324219-.519531.425781-.78125 2.628907-.992187 5.355469 2.136719 3.496094 4.699219-7.414063 10.21875-15.625 19.835937-24.550781 28.761718l-134.175782 134.175782-3.921874-3.921875 134.175781-134.175781c8.925781-8.925782 17.136719-18.542969 24.550781-28.757813zm0 0" fill="#d1d3d4"/><path d="m165.359375 305.550781 6.066406 6.066407c2.675781 2.671874 7.011719 2.671874 9.6875 0 2.671875-2.675782 2.671875-7.011719 0-9.6875l-6.066406-6.066407zm0 0" fill="#ef5a9d"/><path d="m178.28125 308.785156c2.675781-2.671875 2.675781-7.011718 0-9.6875l2.828125 2.828125c2.675781 2.675781 2.675781 7.011719 0 9.6875s-7.011719 2.675781-9.6875 0c.003906 0 4.1875-.152343 6.859375-2.828125zm0 0" fill="#e43d91"/><path d="m155.675781 315.238281 6.0625 6.0625c2.675781 2.675781 7.011719 2.675781 9.6875 0 2.675781-2.671875 2.675781-7.011719 0-9.6875l-6.0625-6.0625zm0 0" fill="#ef5a9d"/><path d="m145.984375 324.925781 6.066406 6.0625c2.675781 2.675781 7.011719 2.675781 9.6875 0s2.675781-7.011719 0-9.6875l-6.0625-6.0625zm0 0" fill="#ef5a9d"/><path d="m136.296875 334.613281 6.066406 6.066407c2.675781 2.675781 7.011719 2.675781 9.6875 0 2.675781-2.675782 2.675781-7.015626 0-9.691407l-6.066406-6.0625zm0 0" fill="#ef5a9d"/><path d="m126.609375 344.300781 6.066406 6.0625c2.671875 2.675781 7.011719 2.675781 9.6875 0s2.675781-7.011719 0-9.6875l-6.066406-6.0625zm0 0" fill="#ef5a9d"/><path d="m114.664062 344.050781 8.722657 8.722657c1.5625 1.5625 4.09375 1.5625 5.65625 0l3.019531-3.019532-11.550781-11.550781zm0 0" fill="#fede3a"/><path d="m114.664062 344.050781 54.285157-54.285156-5.5-5.503906-48.785157 48.785156c-3.039062 3.039063-3.039062 7.964844 0 11.003906zm0 0" fill="#fede3a"/><path d="m166.199219 287.015625 2.75 2.75-54.285157 54.285156c-1.003906-1-1.675781-2.207031-2.015624-3.488281zm0 0" fill="#f7cb15"/><path d="m171.425781 311.613281-2.550781-2.550781 2.828125-2.828125 2.550781 2.550781c2.179688 2.179688 5.449219 2.554688 8.035156 1.179688-.3125.589844-.683593 1.15625-1.179687 1.648437-2.671875 2.675781-7.011719 2.675781-9.683594 0zm0 0" fill="#e43d91"/><path d="m161.734375 321.300781-2.546875-2.546875 2.828125-2.828125 2.546875 2.546875c2.179688 2.179688 5.453125 2.554688 8.039062 1.179688-.3125.589844-.683593 1.15625-1.179687 1.648437-2.675781 2.675781-7.011719 2.675781-9.6875 0zm0 0" fill="#e43d91"/><path d="m152.046875 330.988281-2.550781-2.546875 2.828125-2.828125 2.550781 2.546875c2.179688 2.183594 5.449219 2.554688 8.039062 1.183594-.308593.585938-.683593 1.152344-1.179687 1.644531-2.671875 2.675781-7.011719 2.675781-9.6875 0zm0 0" fill="#e43d91"/><path d="m132.953125 344.984375 2.550781 2.550781c2.179688 2.179688 5.449219 2.554688 8.035156 1.179688-.3125.589844-.683593 1.15625-1.179687 1.648437-2.675781 2.675781-7.011719 2.675781-9.6875 0l-2.550781-2.550781zm0 0" fill="#e43d91"/><path d="m142.363281 340.675781-2.550781-2.550781 2.828125-2.828125 2.550781 2.550781c2.179688 2.179688 5.449219 2.550782 8.035156 1.179688-.3125.589844-.683593 1.15625-1.179687 1.648437-2.671875 2.675781-7.011719 2.675781-9.683594 0zm0 0" fill="#e43d91"/><path d="m168.597656 318.472656c2.675782-2.671875 2.675782-7.011718 0-9.6875l2.828125 2.828125c2.675781 2.675781 2.675781 7.011719 0 9.6875-2.679687 2.675781-7.015625 2.675781-9.691406 0 0 0 4.1875-.152343 6.863281-2.828125zm0 0" fill="#e43d91"/><path d="m158.90625 328.160156c2.679688-2.675781 2.679688-7.011718 0-9.6875l2.828125 2.828125c2.675781 2.671875 2.675781 7.011719 0 9.6875s-7.011719 2.675781-9.6875 0c0 0 4.183594-.152343 6.859375-2.828125zm0 0" fill="#e43d91"/><path d="m149.21875 337.847656c2.675781-2.675781 2.675781-7.011718 0-9.6875l2.828125 2.828125c2.675781 2.671875 2.675781 7.011719 0 9.6875-2.671875 2.675781-7.011719 2.675781-9.6875 0 .003906 0 4.1875-.152343 6.859375-2.828125zm0 0" fill="#e43d91"/><path d="m139.535156 347.535156c2.675782-2.675781 2.675782-7.011718 0-9.6875l2.828125 2.828125c2.675781 2.675781 2.675781 7.011719 0 9.6875s-7.011719 2.675781-9.6875 0c0 0 4.183594-.152343 6.859375-2.828125zm0 0" fill="#e43d91"/><path d="m182.726562 309.054688-16.53125-16.535157 2.753907-2.753906 12.160156 12.164063c1.929687 1.925781 2.464844 4.714843 1.617187 7.125zm0 0" fill="#e43d91"/><path d="m123.191406 352.386719c16.996094 16.996093 51.035156 9.316406 68.984375-8.628907 18.101563-18.105468 19.292969-46.371093 2.652344-63.011718-1.558594-1.558594-4.09375-1.558594-5.652344 0-1.5625 1.5625-1.5625 4.097656 0 5.65625 13.519531 13.523437 12.328125 36.710937-2.660156 51.699218-15.011719 15.011719-44.085937 22.210938-57.667969 8.628907-1.5625-1.5625-4.09375-1.5625-5.65625 0s-1.5625 4.09375 0 5.65625zm0 0" fill="#fede3a"/><path d="m130.644531 348.335938c14.210938 11.355468 41.492188 4.148437 55.875-10.234376 14.984375-14.984374 16.175781-38.175781 2.65625-51.695312-1.078125-1.082031-1.394531-2.621094-.980469-3.984375 1.238282-.347656 2.617188-.050781 3.59375.925781 15.328126 15.328125 14.234376 41.371094-2.445312 58.046875-15.335938 15.335938-43.433594 22.535157-59.914062 11l-1.558594-1.175781c-.71875-.582031-1.414063-1.207031-2.078125-1.871094-.628907-.628906-3.800781-4.007812-3.800781-4.007812l-4.304688-4.308594 2.828125-2.828125zm0 0" fill="#f7cb15"/><path d="m148.273438 269.089844 52.90625 52.902344c1.558593 1.5625 4.09375 1.5625 5.65625 0l7.664062-7.664063c5.203125-5.203125 5.203125-13.640625 0-18.84375l-39.714844-39.714844c-5.207031-5.207031-13.640625-5.207031-18.84375 0l-7.667968 7.664063c-1.5625 1.558594-1.5625 4.09375 0 5.65625zm0 0" fill="#f7cb15"/><path d="m158.753906 279.566406 31.941406 31.945313c1.234376 1.230469 3.230469 1.230469 4.460938 0l10.257812-10.257813c4.101563-4.101562 4.101563-10.753906 0-14.859375l-21.546874-21.542969c-4.101563-4.105468-10.753907-4.105468-14.855469 0l-10.257813 10.257813c-1.234375 1.230469-1.234375 3.230469 0 4.457031zm0 0" fill="#fede3a"/><path d="m157.113281 260.25 52.902344 52.902344c1.429687 1.429687 3.660156 1.539062 5.226563.355468-.234376.277344-.476563.554688-.742188.816407l-7.664062 7.667969c-1.5625 1.5625-4.097657 1.5625-5.65625 0l-52.90625-52.902344c-1.5625-1.5625-1.5625-4.097656 0-5.65625l7.667968-7.667969c.261719-.261719.539063-.503906.820313-.742187-1.1875 1.570312-1.078125 3.796874.351562 5.226562zm0 0" fill="#f7cb15"/></svg>