<?xml version="1.0" encoding="iso-8859-1"?>
<!-- Generator: Adobe Illustrator 21.0.0, SVG Export Plug-In . SVG Version: 6.00 Build 0)  -->
<svg xmlns="http://www.w3.org/2000/svg" xmlns:xlink="http://www.w3.org/1999/xlink" version="1.1" id="Capa_1" x="0px" y="0px" viewBox="0 0 512 512" style="enable-background:new 0 0 512 512;" xml:space="preserve" width="512" height="512">
<g>
	<path style="fill:#00AA00;" d="M496.882,497.019c-16.387,16.541-47.086,22.302-67.364,2.086c-0.008-0.008-0.016-0.016-0.024-0.024   l-71.77-71.81c-5.858-5.858-5.857-15.356,0.001-21.212l48.2-48.2c5.858-5.858,15.361-5.854,21.214,0l71.785,71.825   C523.573,454.263,507.784,486.152,496.882,497.019z"/>
	<path style="fill:#CDE3FF;" d="M395.14,314.807l-80.333,80.333c-5.857,5.858-15.355,5.858-21.213,0l-289.2-289.2   C1.58,103.127,0,99.312,0,95.333V15C0,6.716,6.716,0,15,0h80.333c3.979,0,7.794,1.58,10.606,4.394l289.2,289.2   C400.999,299.453,400.996,308.95,395.14,314.807z"/>
	<path style="fill:#005500;" d="M498.924,429.684l-71.785-71.825c-5.853-5.854-15.356-5.858-21.214,0l-24.034,24.033L496.949,496.95   C507.85,486.02,523.522,454.212,498.924,429.684z"/>
	<path style="fill:#ACD1FF;" d="M395.14,314.807c5.857-5.857,5.86-15.353,0-21.213l-289.2-289.2C103.127,1.58,99.312,0,95.333,0H15   C10.858,0,7.108,1.679,4.393,4.394l350.58,350.58L395.14,314.807z"/>
	<path style="fill:#7CFF00;" d="M459.416,346.93L346.945,459.401c-19.173,19.204-50.229,19.231-69.428-0.004   c-19.098-19.132-19.098-50.261,0-69.394l112.47-112.47c19.169-19.204,50.231-19.23,69.429,0.004   C478.507,296.661,478.52,327.792,459.416,346.93z"/>
	<path style="fill:#00AA00;" d="M459.416,346.93c19.104-19.138,19.091-50.269,0-69.394c-19.197-19.234-50.26-19.208-69.429-0.004   l-56.226,56.225c-0.001,0.001-0.001,0.001-0.002,0.002l69.413,69.413L459.416,346.93z"/>
	<path style="fill:#EDF6FF;" d="M197.193,395.14l-80.333-80.333c-5.858-5.857-5.858-15.355,0-21.213l289.2-289.2   C408.873,1.58,412.688,0,416.667,0H497c8.284,0,15,6.716,15,15v80.333c0,3.979-1.58,7.794-4.394,10.606l-289.2,289.2   C212.547,400.999,203.05,400.996,197.193,395.14z"/>
	<path style="fill:#CDE3FF;" d="M197.193,395.14c5.857,5.857,15.353,5.86,21.213,0l289.2-289.2   c2.813-2.813,4.394-6.628,4.394-10.606V15c0-4.142-1.679-7.892-4.393-10.607l-350.58,350.58L197.193,395.14z"/>
	<path style="fill:#0064FF;" d="M14.982,496.882c-16.541-16.387-22.302-47.086-2.086-67.364c0.008-0.008,0.016-0.016,0.024-0.024   l71.81-71.77c5.858-5.858,15.356-5.857,21.212,0.001l48.2,48.2c5.858,5.858,5.854,15.361,0,21.214l-71.825,71.785   C57.737,523.572,25.848,507.784,14.982,496.882z"/>
	<path style="fill:#003280;" d="M82.317,498.924l71.825-71.785c5.854-5.853,5.858-15.356,0-21.214l-24.033-24.034L15.05,496.949   C25.98,507.85,57.788,523.522,82.317,498.924z"/>
	<path style="fill:#00B4FF;" d="M165.07,459.416L52.599,346.945c-19.204-19.173-19.231-50.229,0.004-69.428   c19.132-19.098,50.261-19.098,69.394,0l112.47,112.47c19.204,19.169,19.23,50.231-0.004,69.429   C215.339,478.507,184.208,478.52,165.07,459.416z"/>
	<path style="fill:#0064FF;" d="M165.07,459.416c19.138,19.104,50.269,19.091,69.394,0c19.234-19.197,19.208-50.26,0.004-69.429   l-56.225-56.226c-0.001-0.001-0.001-0.001-0.002-0.002l-69.413,69.413L165.07,459.416z"/>
</g>















</svg>
